<svg width="30" height="30" viewBox="0 0 30 30" fill="none" xmlns="http://www.w3.org/2000/svg">
<path fill-rule="evenodd" clip-rule="evenodd" d="M18.0863 21.2888C17.999 21.2017 17.9297 21.0982 17.8824 20.9843C17.8352 20.8704 17.8109 20.7483 17.8109 20.625C17.8109 20.5017 17.8352 20.3796 17.8824 20.2657C17.9297 20.1518 17.999 20.0484 18.0863 19.9613L23.0494 15L18.0863 10.0388C17.9102 9.86275 17.8113 9.62399 17.8113 9.37503C17.8113 9.12608 17.9102 8.88732 18.0863 8.71128C18.2623 8.53524 18.5011 8.43635 18.75 8.43635C18.999 8.43635 19.2377 8.53524 19.4138 8.71128L25.0388 14.3363C25.1261 14.4234 25.1953 14.5268 25.2426 14.6407C25.2899 14.7546 25.3142 14.8767 25.3142 15C25.3142 15.1233 25.2899 15.2454 25.2426 15.3593C25.1953 15.4732 25.1261 15.5767 25.0388 15.6638L19.4138 21.2888C19.3267 21.3761 19.2232 21.4454 19.1093 21.4926C18.9954 21.5399 18.8733 21.5642 18.75 21.5642C18.6267 21.5642 18.5046 21.5399 18.3907 21.4926C18.2768 21.4454 18.1734 21.3761 18.0863 21.2888Z" fill="white"/>
<path fill-rule="evenodd" clip-rule="evenodd" d="M4.6875 15C4.6875 14.7514 4.78627 14.5129 4.96209 14.3371C5.1379 14.1613 5.37636 14.0625 5.625 14.0625L22.5 14.0625C22.7486 14.0625 22.9871 14.1613 23.1629 14.3371C23.3387 14.5129 23.4375 14.7514 23.4375 15C23.4375 15.2486 23.3387 15.4871 23.1629 15.6629C22.9871 15.8387 22.7486 15.9375 22.5 15.9375L5.625 15.9375C5.37636 15.9375 5.1379 15.8387 4.96209 15.6629C4.78627 15.4871 4.6875 15.2486 4.6875 15Z" fill="white"/>
</svg>
