<svg width="30" height="30" viewBox="0 0 30 30" fill="none" xmlns="http://www.w3.org/2000/svg">
<path fill-rule="evenodd" clip-rule="evenodd" d="M8.71125 18.0862C8.79834 17.9989 8.90179 17.9297 9.01569 17.8824C9.12958 17.8351 9.25169 17.8108 9.375 17.8108C9.49831 17.8108 9.62042 17.8351 9.73431 17.8824C9.84821 17.9297 9.95167 17.9989 10.0388 18.0862L15 23.0494L19.9613 18.0862C20.1373 17.9102 20.376 17.8113 20.625 17.8113C20.874 17.8113 21.1127 17.9102 21.2888 18.0862C21.4648 18.2623 21.5637 18.501 21.5637 18.75C21.5637 18.999 21.4648 19.2377 21.2888 19.4137L15.6638 25.0387C15.5767 25.126 15.4732 25.1953 15.3593 25.2426C15.2454 25.2898 15.1233 25.3142 15 25.3142C14.8767 25.3142 14.7546 25.2898 14.6407 25.2426C14.5268 25.1953 14.4233 25.126 14.3363 25.0387L8.71125 19.4137C8.62394 19.3267 8.55468 19.2232 8.50741 19.1093C8.46015 18.9954 8.43583 18.8733 8.43583 18.75C8.43583 18.6267 8.46015 18.5046 8.50741 18.3907C8.55468 18.2768 8.62394 18.1733 8.71125 18.0862Z" fill="white"/>
<path fill-rule="evenodd" clip-rule="evenodd" d="M15 4.6875C15.2486 4.6875 15.4871 4.78627 15.6629 4.96209C15.8387 5.1379 15.9375 5.37636 15.9375 5.625V22.5C15.9375 22.7486 15.8387 22.9871 15.6629 23.1629C15.4871 23.3387 15.2486 23.4375 15 23.4375C14.7514 23.4375 14.5129 23.3387 14.3371 23.1629C14.1613 22.9871 14.0625 22.7486 14.0625 22.5V5.625C14.0625 5.37636 14.1613 5.1379 14.3371 4.96209C14.5129 4.78627 14.7514 4.6875 15 4.6875Z" fill="white"/>
</svg>
