<svg width="40" height="40" viewBox="0 0 40 40" fill="none" xmlns="http://www.w3.org/2000/svg">
<path d="M33.984 28.0949C33.9172 27.6821 33.6584 27.3293 33.2708 27.1197L27.5368 23.7414L27.4896 23.7149C27.2492 23.5946 26.9837 23.5329 26.7148 23.535C26.2344 23.535 25.7756 23.7169 25.4572 24.0361L23.7648 25.7293C23.6924 25.7981 23.4564 25.8977 23.3848 25.9013C23.3652 25.8997 21.4156 25.7593 17.8264 22.1698C14.2436 18.5878 14.0916 16.6322 14.0904 16.6322C14.0924 16.5322 14.1908 16.297 14.2608 16.2242L15.704 14.7813C16.2124 14.2717 16.3648 13.4269 16.0632 12.7725L12.876 6.77535C12.6444 6.29855 12.1944 6.00415 11.6952 6.00415C11.342 6.00415 11.0012 6.15055 10.7348 6.41655L6.80081 10.3418C6.42361 10.7169 6.09881 11.373 6.02801 11.901C5.99361 12.1534 5.29561 18.1781 13.5556 26.4393C20.568 33.4509 26.036 33.9957 27.546 33.9957C27.7299 33.9981 27.9137 33.9886 28.0964 33.9673C28.6228 33.8969 29.278 33.5729 29.6528 33.1973L33.5836 29.2669C33.9044 28.9445 34.0508 28.5185 33.984 28.0949Z" fill="#6EAA5E"/>
</svg>
