<svg width="107" height="28" viewBox="0 0 107 28" fill="none" xmlns="http://www.w3.org/2000/svg">
<path d="M9.89 13.725C10.67 14.655 11.06 16.11 11.06 18.09C11.06 19.29 11.03 20.28 10.97 21.06C10.94 21.81 10.835 22.605 10.655 23.445C10.475 24.255 10.22 24.885 9.89 25.335C9.56 25.785 9.095 26.16 8.495 26.46C7.925 26.76 7.205 26.91 6.335 26.91H1.655C1.355 26.91 1.115 26.76 0.935 26.46C0.755 26.13 0.665 25.815 0.665 25.515L0.845 3.33V3.105C1.145 1.635 2.72 0.899998 5.57 0.899998C7.25 0.899998 8.375 1.395 8.945 2.385C9.515 3.375 9.8 4.77 9.8 6.57C9.8 9.24 9.26 11.19 8.18 12.42C8.9 12.78 9.47 13.215 9.89 13.725ZM5.03 2.745C4.67 2.745 4.325 2.82 3.995 2.97C3.665 3.12 3.485 3.285 3.455 3.465C3.455 4.095 3.44 4.995 3.41 6.165C3.38 7.305 3.35 8.355 3.32 9.315C3.32 10.245 3.32 11.13 3.32 11.97L5.3 11.925C6.68 11.805 7.37 10.245 7.37 7.245V5.985C7.37 4.905 7.205 4.095 6.875 3.555C6.575 3.015 5.96 2.745 5.03 2.745ZM8.675 20.745C8.675 20.445 8.675 20.07 8.675 19.62C8.705 19.17 8.72 18.915 8.72 18.855C8.72 18.075 8.69 17.445 8.63 16.965C8.57 16.455 8.435 15.945 8.225 15.435C8.015 14.895 7.67 14.505 7.19 14.265C6.71 13.995 6.095 13.86 5.345 13.86C5.315 13.86 5.27 13.86 5.21 13.86C5.18 13.83 5.15 13.815 5.12 13.815L3.275 13.86C3.245 15.78 3.23 18.795 3.23 22.905C3.23 23.865 3.245 24.495 3.275 24.795C3.365 24.825 3.53 24.84 3.77 24.84H5.84C7.73 24.84 8.675 23.475 8.675 20.745ZM18.2681 3.105C17.3981 3.105 16.7081 3.165 16.1981 3.285C16.0181 3.345 15.9281 4.365 15.9281 6.345C15.9281 7.695 15.9131 8.82 15.8831 9.72C15.8831 10.62 15.8831 11.085 15.8831 11.115C15.8831 12.135 15.9581 12.66 16.1081 12.69C16.2581 12.75 17.3081 12.78 19.2581 12.78C19.8881 12.78 20.2781 12.87 20.4281 13.05C20.5781 13.23 20.6531 13.56 20.6531 14.04C20.6531 14.73 20.3081 15.075 19.6181 15.075H17.2781C16.7681 15.075 16.4381 15.135 16.2881 15.255C16.1681 15.345 16.1081 15.57 16.1081 15.93C16.1381 17.07 16.1381 18.105 16.1081 19.035C16.1081 19.935 16.0931 21 16.0631 22.23C16.0631 23.46 16.0631 24.225 16.0631 24.525C16.0631 24.795 16.1831 24.93 16.4231 24.93H16.6481C16.9781 24.93 17.4131 24.915 17.9531 24.885C18.4931 24.825 19.0331 24.795 19.5731 24.795C20.4131 24.795 20.8781 24.9 20.9681 25.11C21.0581 25.26 21.1031 25.59 21.1031 26.1C21.1031 26.55 20.8331 26.805 20.2931 26.865C18.6131 27.045 16.9481 27.135 15.2981 27.135C14.5781 27.135 14.0831 27.03 13.8131 26.82C13.5731 26.61 13.4531 26.19 13.4531 25.56V23.535C13.5131 21.945 13.5431 19.665 13.5431 16.695C13.5731 13.695 13.5881 11.055 13.5881 8.775C13.5881 6.495 13.5881 5.295 13.5881 5.175C13.5881 5.025 13.6031 4.725 13.6331 4.275C13.6631 3.825 13.6781 3.45 13.6781 3.15C13.7081 2.85 13.7681 2.52 13.8581 2.16C13.9781 1.77 14.1131 1.455 14.2631 1.215C14.4131 0.974999 15.1781 0.854999 16.5581 0.854999C16.7981 0.854999 17.2031 0.869998 17.7731 0.899998C18.3431 0.899998 18.7481 0.899998 18.9881 0.899998C19.8881 0.899998 20.4731 0.959998 20.7431 1.08C21.0431 1.17 21.1931 1.44 21.1931 1.89C21.1931 2.37 21.0581 2.7 20.7881 2.88C20.5481 3.06 19.9631 3.15 19.0331 3.15C18.9731 3.15 18.8531 3.15 18.6731 3.15C18.4931 3.12 18.3581 3.105 18.2681 3.105ZM32.4171 0.944997C32.5371 1.005 32.6571 1.155 32.7771 1.395C32.9271 1.635 33.0021 1.815 33.0021 1.935C33.0021 2.085 32.9271 2.31 32.7771 2.61C32.6571 2.91 32.5521 3.06 32.4621 3.06L28.9521 3.15C28.9521 6.3 28.9371 10.44 28.9071 15.57C28.8771 20.7 28.8621 23.445 28.8621 23.805V26.235C28.8621 26.295 28.8171 26.385 28.7271 26.505C28.6371 26.625 28.4721 26.745 28.2321 26.865C27.9921 26.985 27.7221 27.045 27.4221 27.045C26.9121 27.045 26.5821 26.955 26.4321 26.775C26.2821 26.565 26.2071 26.265 26.2071 25.875C26.2071 25.725 26.2071 25.485 26.2071 25.155C26.2371 24.825 26.2521 24.57 26.2521 24.39C26.3421 19.08 26.3871 12 26.3871 3.15C24.3471 3.21 23.2071 3.195 22.9671 3.105C22.6371 3.075 22.4721 2.625 22.4721 1.755C22.5921 1.245 22.8471 0.929999 23.2371 0.809999C29.1471 0.809999 32.2071 0.854999 32.4171 0.944997ZM44.9355 6.93C44.9355 7.62 44.9505 8.61 44.9805 9.9C45.0405 11.19 45.0705 12.12 45.0705 12.69C45.0705 17.31 44.6955 20.865 43.9455 23.355C43.1955 25.845 41.8755 27.09 39.9855 27.09C38.7255 27.09 37.6755 26.76 36.8355 26.1C36.0255 25.44 35.4255 24.15 35.0355 22.23C34.5855 19.98 34.3605 17.385 34.3605 14.445C34.3605 13.785 34.3605 12.9 34.3605 11.79C34.3905 10.68 34.4055 9.915 34.4055 9.495C34.4055 8.565 34.4805 7.635 34.6305 6.705C34.8105 5.775 35.0955 4.815 35.4855 3.825C35.8755 2.805 36.4905 1.98 37.3305 1.35C38.1705 0.719999 39.1605 0.404999 40.3005 0.404999C41.5905 0.404999 42.6705 1.08 43.5405 2.43C44.4105 3.78 44.8755 5.28 44.9355 6.93ZM39.7605 25.065C41.5305 25.065 42.4155 21.135 42.4155 13.275C42.4155 9.555 42.2955 6.96 42.0555 5.49C41.9655 4.8 41.7255 4.14 41.3355 3.51C40.9455 2.88 40.4505 2.565 39.8505 2.565C39.2505 2.565 38.7555 2.82 38.3655 3.33C37.9755 3.84 37.6305 4.965 37.3305 6.705C37.0605 8.445 36.9255 10.845 36.9255 13.905C36.9255 21.345 37.8705 25.065 39.7605 25.065ZM47.8204 2.52C47.7904 3.3 47.7754 6.975 47.7754 13.545V17.73C47.7754 18.27 47.7754 18.93 47.7754 19.71C47.7754 20.49 47.7604 21.135 47.7304 21.645C47.7304 22.155 47.7304 22.71 47.7304 23.31C47.7304 23.91 47.7454 24.405 47.7754 24.795C47.8054 25.155 47.8354 25.515 47.8654 25.875C47.9254 26.205 47.9854 26.46 48.0454 26.64C48.1054 26.79 48.1954 26.865 48.3154 26.865C49.0654 26.865 49.7104 26.61 50.2504 26.1C50.3104 22.47 50.3404 19.05 50.3404 15.84C50.3404 15.45 50.2954 14.445 50.2054 12.825C50.1154 11.205 50.0854 10.2 50.1154 9.81L55.6504 25.83C55.7704 26.16 56.1154 26.325 56.6854 26.325C57.1954 26.325 57.7054 26.19 58.2154 25.92C58.7254 25.62 58.9804 25.32 58.9804 25.02C59.1004 24.66 59.1604 23.34 59.1604 21.06C59.1604 18.66 59.1304 14.91 59.0704 9.81C59.0104 4.71 58.9804 1.905 58.9804 1.395C58.9204 1.245 58.8454 1.125 58.7554 1.035C58.6654 0.914999 58.6204 0.839999 58.6204 0.809999C57.2704 0.989999 56.5954 1.53 56.5954 2.43V5.805C56.5954 6.705 56.6254 8.52 56.6854 11.25C56.7754 13.95 56.8204 15.99 56.8204 17.37C56.8204 17.7 56.8354 18.6 56.8654 20.07C56.9254 21.51 56.9404 22.425 56.9104 22.815C55.5304 19.035 53.5204 12.69 50.8804 3.78C50.8504 3.69 50.7904 3.495 50.7004 3.195C50.6404 2.865 50.5804 2.61 50.5204 2.43C50.4604 2.25 50.3704 2.055 50.2504 1.845C50.1304 1.635 49.9804 1.485 49.8004 1.395C49.2304 1.395 48.7654 1.5 48.4054 1.71C48.0454 1.92 47.8504 2.19 47.8204 2.52ZM62.8645 23.085C62.4145 23.355 62.1895 23.775 62.1895 24.345C62.1895 24.945 62.3695 25.5 62.7295 26.01C63.0895 26.49 63.5395 26.73 64.0795 26.73C64.7095 26.73 65.2045 26.565 65.5645 26.235C65.9245 25.875 66.1045 25.395 66.1045 24.795C66.1045 24.075 65.9995 23.535 65.7895 23.175C65.6095 22.815 65.2045 22.635 64.5745 22.635C63.9745 22.635 63.4045 22.785 62.8645 23.085ZM72.4115 0.944997C71.9015 0.734998 71.3165 0.629999 70.6565 0.629999C70.4165 0.629999 70.2215 0.689999 70.0715 0.809999C69.9215 0.929999 69.8315 1.125 69.8015 1.395C69.7715 1.635 69.7565 1.875 69.7565 2.115C69.7565 2.325 69.7715 2.61 69.8015 2.97C69.8315 3.33 69.8465 3.615 69.8465 3.825C69.8465 10.005 69.6965 17.235 69.3965 25.515C69.3965 26.325 69.4565 26.745 69.5765 26.775C70.1765 26.925 70.4915 27 70.5215 27C70.8515 27 71.0915 26.97 71.2415 26.91C71.4215 26.85 71.5715 26.7 71.6915 26.46C71.8115 26.19 71.8715 25.785 71.8715 25.245C71.8715 23.115 71.9465 20.43 72.0965 17.19C72.0965 16.44 72.1865 16.02 72.3665 15.93C72.8765 16.8 73.5365 18.165 74.3465 20.025C75.1565 21.885 75.9965 23.67 76.8665 25.38C77.3765 26.64 77.9015 27.27 78.4415 27.27C78.4715 27.27 78.5615 27.255 78.7115 27.225C78.8915 27.225 79.0265 27.225 79.1165 27.225C79.2065 27.225 79.3265 27.195 79.4765 27.135C79.6265 27.105 79.7465 27.06 79.8365 27C79.9265 26.94 80.0015 26.85 80.0615 26.73C80.1215 26.61 80.1515 26.475 80.1515 26.325C80.1515 25.815 79.9565 25.17 79.5665 24.39C76.6265 18.6 74.7815 14.91 74.0315 13.32C74.5415 12.24 75.3515 10.455 76.4615 7.965C77.5715 5.445 78.2615 3.915 78.5315 3.375C78.7715 2.895 78.8915 2.34 78.8915 1.71C78.8915 1.08 78.5915 0.765 77.9915 0.765C77.6615 0.765 77.3315 0.809999 77.0015 0.899998C76.8515 0.959999 76.6565 1.215 76.4165 1.665C76.1765 2.115 75.9965 2.535 75.8765 2.925C75.4565 4.185 74.8715 5.73 74.1215 7.56C73.4015 9.39 72.8315 10.905 72.4115 12.105C72.3815 11.625 72.3665 10.92 72.3665 9.99C72.3665 9.45 72.3815 8.58 72.4115 7.38C72.4715 6.18 72.5015 5.25 72.5015 4.59C72.5015 2.61 72.4715 1.395 72.4115 0.944997ZM91.5017 13.995C90.9917 15.555 90.1367 16.545 88.9367 16.965C91.0967 19.995 92.3867 23.265 92.8067 26.775C92.5367 27.045 92.1317 27.18 91.5917 27.18C91.3517 27.18 91.0517 27.09 90.6917 26.91C90.3617 26.73 90.1667 26.565 90.1067 26.415C89.7767 24.675 89.2517 22.89 88.5317 21.06C87.8117 19.2 86.9567 17.94 85.9667 17.28H84.7067C84.5567 17.43 84.4817 19.335 84.4817 22.995L84.5267 25.605C84.5267 25.815 84.3917 26.115 84.1217 26.505C83.8517 26.895 83.4917 27.09 83.0417 27.09C82.3217 27.09 81.9617 26.88 81.9617 26.46L82.1417 3.375V3.15C82.4717 1.59 84.0767 0.809999 86.9567 0.809999C89.1767 0.809999 90.6917 1.47 91.5017 2.79C91.9217 3.45 92.1317 4.77 92.1317 6.75C92.1317 10.23 91.9217 12.645 91.5017 13.995ZM84.6167 15.12H86.7767C87.6167 15.12 88.2917 14.745 88.8017 13.995C89.3417 13.215 89.6117 12.255 89.6117 11.115L89.6567 7.065C89.6567 5.535 89.4317 4.455 88.9817 3.825C88.5617 3.165 87.7067 2.835 86.4167 2.835C86.0567 2.835 85.6817 2.91 85.2917 3.06C84.9317 3.18 84.7367 3.33 84.7067 3.51C84.5867 7.65 84.5567 11.52 84.6167 15.12ZM95.6122 0.944997C96.0622 0.854999 96.5572 0.809999 97.0972 0.809999C98.8372 0.809999 100.367 1.305 101.687 2.295C103.007 3.285 103.997 4.53 104.657 6.03C105.347 7.53 105.857 8.985 106.187 10.395C106.517 11.805 106.682 13.11 106.682 14.31C106.682 21.66 104.042 25.755 98.7622 26.595C97.5622 26.715 96.9322 26.775 96.8722 26.775C95.7322 26.775 95.1472 26.475 95.1172 25.875C94.9072 23.985 94.8022 20.655 94.8022 15.885V13.005C94.8022 8.955 94.8322 5.64 94.8922 3.06C94.8922 2.37 94.9222 1.875 94.9822 1.575C95.0722 1.245 95.2822 1.035 95.6122 0.944997ZM97.5472 3.15V3.645C97.5172 5.835 97.5022 8.49 97.5022 11.61C97.5022 13.47 97.5022 15.18 97.5022 16.74C97.5022 18.27 97.5022 19.5 97.5022 20.43C97.5322 21.33 97.5472 22.11 97.5472 22.77C97.5772 23.4 97.5922 23.88 97.5922 24.21C97.5922 24.54 97.5922 24.735 97.5922 24.795C98.8822 24.795 99.9772 24.45 100.877 23.76C101.777 23.07 102.437 22.155 102.857 21.015C103.307 19.875 103.622 18.765 103.802 17.685C103.982 16.605 104.072 15.48 104.072 14.31C104.072 12.87 103.847 11.31 103.397 9.63C102.947 7.95 102.242 6.435 101.282 5.085C100.352 3.735 99.3022 3.06 98.1322 3.06C97.9822 3.06 97.7872 3.09 97.5472 3.15Z" fill="black"/>
</svg>
